<svg xmlns="http://www.w3.org/2000/svg" xmlns:xlink="http://www.w3.org/1999/xlink" contentStyleType="text/css" data-diagram-type="ACTIVITY" height="1890px" preserveAspectRatio="none" style="width:694px;height:1890px;background:#FFFFFF;" version="1.1" viewBox="0 0 694 1890" width="694px" zoomAndPan="magnify"><title>**Vanilla U-Net Architecture (Used in Landslide Segmentation)**</title><defs/><g><g class="title" data-source-line="7"><text fill="#000000" font-family="sans-serif" font-size="14" font-weight="bold" lengthAdjust="spacing" textLength="480.2178" x="105.7856" y="40.9951">Vanilla U-Net Architecture (Used in Landslide Segmentation)</text></g><ellipse cx="347.3945" cy="73.2969" fill="#222222" rx="10" ry="10" style="stroke:#222222;stroke-width:1;"/><rect fill="#F1F1F1" height="73.25" rx="12.5" ry="12.5" style="stroke:#181818;stroke-width:0.5;" width="569.2813" x="62.7539" y="103.2969"/><text fill="#000000" font-family="sans-serif" font-size="16" lengthAdjust="spacing" textLength="96.625" x="80.7539" y="136.1484">Input Image</text><text fill="#000000" font-family="sans-serif" font-size="16" lengthAdjust="spacing" textLength="533.2813" x="80.7539" y="154.7734">(6 Channels &#8594; RGB + NDVI + Slope + Elevation)\nSize: H &#215; W &#215; 6</text><rect fill="none" height="811.375" style="stroke:#000000;stroke-width:1.5;" width="434.9844" x="129.9023" y="186.5469"/><path d="M221.3164,186.5469 L221.3164,214.1719 L211.3164,224.1719 L129.9023,224.1719" fill="none" style="stroke:#000000;stroke-width:1.5;"/><text fill="#000000" font-family="sans-serif" font-size="16" lengthAdjust="spacing" textLength="65.4141" x="140.9023" y="210.3984">Encoder</text><rect fill="#F1F1F1" height="73.25" rx="12.5" ry="12.5" style="stroke:#181818;stroke-width:0.5;" width="365.3047" x="164.7422" y="241.1719"/><text fill="#000000" font-family="sans-serif" font-size="16" lengthAdjust="spacing" textLength="104.1953" x="182.7422" y="274.0234">Conv Block 1</text><text fill="#000000" font-family="sans-serif" font-size="16" lengthAdjust="spacing" textLength="329.3047" x="182.7422" y="292.6484">(Conv3x3 + ReLU &#215;2)\nOutput: 16 filters</text><rect fill="#F1F1F1" height="54.625" rx="12.5" ry="12.5" style="stroke:#181818;stroke-width:0.5;" width="55.1797" x="319.8047" y="334.4219"/><text fill="#000000" font-family="sans-serif" font-size="16" lengthAdjust="spacing" textLength="19.1797" x="337.8047" y="367.2734">-&gt;</text><rect fill="#F1F1F1" height="73.25" rx="12.5" ry="12.5" style="stroke:#181818;stroke-width:0.5;" width="301.5859" x="196.6016" y="409.0469"/><text fill="#000000" font-family="sans-serif" font-size="16" lengthAdjust="spacing" textLength="60.6016" x="214.6016" y="441.8984">Down 1</text><text fill="#000000" font-family="sans-serif" font-size="16" lengthAdjust="spacing" textLength="265.5859" x="214.6016" y="460.5234">(MaxPool2&#215;2)\nOutput: 32 filters</text><rect fill="#F1F1F1" height="54.625" rx="12.5" ry="12.5" style="stroke:#181818;stroke-width:0.5;" width="55.1797" x="319.8047" y="502.2969"/><text fill="#000000" font-family="sans-serif" font-size="16" lengthAdjust="spacing" textLength="19.1797" x="337.8047" y="535.1484">-&gt;</text><rect fill="#F1F1F1" height="73.25" rx="12.5" ry="12.5" style="stroke:#181818;stroke-width:0.5;" width="301.5859" x="196.6016" y="576.9219"/><text fill="#000000" font-family="sans-serif" font-size="16" lengthAdjust="spacing" textLength="60.6016" x="214.6016" y="609.7734">Down 2</text><text fill="#000000" font-family="sans-serif" font-size="16" lengthAdjust="spacing" textLength="265.5859" x="214.6016" y="628.3984">(MaxPool2&#215;2)\nOutput: 64 filters</text><rect fill="#F1F1F1" height="54.625" rx="12.5" ry="12.5" style="stroke:#181818;stroke-width:0.5;" width="55.1797" x="319.8047" y="670.1719"/><text fill="#000000" font-family="sans-serif" font-size="16" lengthAdjust="spacing" textLength="19.1797" x="337.8047" y="703.0234">-&gt;</text><rect fill="#F1F1F1" height="73.25" rx="12.5" ry="12.5" style="stroke:#181818;stroke-width:0.5;" width="311.7656" x="191.5117" y="744.7969"/><text fill="#000000" font-family="sans-serif" font-size="16" lengthAdjust="spacing" textLength="60.6016" x="209.5117" y="777.6484">Down 3</text><text fill="#000000" font-family="sans-serif" font-size="16" lengthAdjust="spacing" textLength="275.7656" x="209.5117" y="796.2734">(MaxPool2&#215;2)\nOutput: 128 filters</text><rect fill="#F1F1F1" height="54.625" rx="12.5" ry="12.5" style="stroke:#181818;stroke-width:0.5;" width="55.1797" x="319.8047" y="838.0469"/><text fill="#000000" font-family="sans-serif" font-size="16" lengthAdjust="spacing" textLength="19.1797" x="337.8047" y="870.8984">-&gt;</text><rect fill="#F1F1F1" height="73.25" rx="12.5" ry="12.5" style="stroke:#181818;stroke-width:0.5;" width="414.9844" x="139.9023" y="912.6719"/><text fill="#000000" font-family="sans-serif" font-size="16" lengthAdjust="spacing" textLength="60.6016" x="157.9023" y="945.5234">Down 4</text><text fill="#000000" font-family="sans-serif" font-size="16" lengthAdjust="spacing" textLength="378.9844" x="157.9023" y="964.1484">(MaxPool2&#215;2)\nOutput: 256 filters (Bottleneck)</text><rect fill="none" height="643.5" style="stroke:#000000;stroke-width:1.5;" width="672.7891" x="11" y="1007.9219"/><path d="M104.3281,1007.9219 L104.3281,1035.5469 L94.3281,1045.5469 L11,1045.5469" fill="none" style="stroke:#000000;stroke-width:1.5;"/><text fill="#000000" font-family="sans-serif" font-size="16" lengthAdjust="spacing" textLength="67.3281" x="22" y="1031.7734">Decoder</text><rect fill="#F1F1F1" height="73.25" rx="12.5" ry="12.5" style="stroke:#181818;stroke-width:0.5;" width="652.7891" x="21" y="1062.5469"/><text fill="#000000" font-family="sans-serif" font-size="16" lengthAdjust="spacing" textLength="37.1328" x="39" y="1095.3984">Up 1</text><text fill="#000000" font-family="sans-serif" font-size="16" lengthAdjust="spacing" textLength="616.7891" x="39" y="1114.0234">(Upsample2&#215; + Concat with 128)\nConv3&#215;3 + ReLU &#215;2\nOutput: 128 filters</text><rect fill="#F1F1F1" height="54.625" rx="12.5" ry="12.5" style="stroke:#181818;stroke-width:0.5;" width="55.1797" x="319.8047" y="1155.7969"/><text fill="#000000" font-family="sans-serif" font-size="16" lengthAdjust="spacing" textLength="19.1797" x="337.8047" y="1188.6484">-&gt;</text><rect fill="#F1F1F1" height="73.25" rx="12.5" ry="12.5" style="stroke:#181818;stroke-width:0.5;" width="632.4297" x="31.1797" y="1230.4219"/><text fill="#000000" font-family="sans-serif" font-size="16" lengthAdjust="spacing" textLength="37.1328" x="49.1797" y="1263.2734">Up 2</text><text fill="#000000" font-family="sans-serif" font-size="16" lengthAdjust="spacing" textLength="596.4297" x="49.1797" y="1281.8984">(Upsample2&#215; + Concat with 64)\nConv3&#215;3 + ReLU &#215;2\nOutput: 64 filters</text><rect fill="#F1F1F1" height="54.625" rx="12.5" ry="12.5" style="stroke:#181818;stroke-width:0.5;" width="55.1797" x="319.8047" y="1323.6719"/><text fill="#000000" font-family="sans-serif" font-size="16" lengthAdjust="spacing" textLength="19.1797" x="337.8047" y="1356.5234">-&gt;</text><rect fill="#F1F1F1" height="73.25" rx="12.5" ry="12.5" style="stroke:#181818;stroke-width:0.5;" width="632.4297" x="31.1797" y="1398.2969"/><text fill="#000000" font-family="sans-serif" font-size="16" lengthAdjust="spacing" textLength="37.1328" x="49.1797" y="1431.1484">Up 3</text><text fill="#000000" font-family="sans-serif" font-size="16" lengthAdjust="spacing" textLength="596.4297" x="49.1797" y="1449.7734">(Upsample2&#215; + Concat with 32)\nConv3&#215;3 + ReLU &#215;2\nOutput: 32 filters</text><rect fill="#F1F1F1" height="54.625" rx="12.5" ry="12.5" style="stroke:#181818;stroke-width:0.5;" width="55.1797" x="319.8047" y="1491.5469"/><text fill="#000000" font-family="sans-serif" font-size="16" lengthAdjust="spacing" textLength="19.1797" x="337.8047" y="1524.3984">-&gt;</text><rect fill="#F1F1F1" height="73.25" rx="12.5" ry="12.5" style="stroke:#181818;stroke-width:0.5;" width="632.4297" x="31.1797" y="1566.1719"/><text fill="#000000" font-family="sans-serif" font-size="16" lengthAdjust="spacing" textLength="37.1328" x="49.1797" y="1599.0234">Up 4</text><text fill="#000000" font-family="sans-serif" font-size="16" lengthAdjust="spacing" textLength="596.4297" x="49.1797" y="1617.6484">(Upsample2&#215; + Concat with 16)\nConv3&#215;3 + ReLU &#215;2\nOutput: 16 filters</text><rect fill="#F1F1F1" height="73.25" rx="12.5" ry="12.5" style="stroke:#181818;stroke-width:0.5;" width="213.5703" x="240.6094" y="1671.4219"/><text fill="#000000" font-family="sans-serif" font-size="16" lengthAdjust="spacing" textLength="177.5703" x="258.6094" y="1704.2734">Final 1&#215;1 Convolution</text><text fill="#000000" font-family="sans-serif" font-size="16" lengthAdjust="spacing" textLength="160.1094" x="258.6094" y="1722.8984">Output Channel = 1</text><rect fill="#F1F1F1" height="73.25" rx="12.5" ry="12.5" style="stroke:#181818;stroke-width:0.5;" width="357" x="168.8945" y="1764.6719"/><text fill="#000000" font-family="sans-serif" font-size="16" lengthAdjust="spacing" textLength="150.2031" x="186.8945" y="1797.5234">Sigmoid Activation</text><text fill="#000000" font-family="sans-serif" font-size="16" lengthAdjust="spacing" textLength="321" x="186.8945" y="1816.1484">Binary Mask (Landslide / Non-Landslide)</text><ellipse cx="347.3945" cy="1868.9219" fill="none" rx="11" ry="11" style="stroke:#222222;stroke-width:1;"/><ellipse cx="347.3945" cy="1868.9219" fill="#222222" rx="6" ry="6" style="stroke:#222222;stroke-width:1;"/><line style="stroke:#181818;stroke-width:1.2;" x1="347.3945" x2="347.3945" y1="83.2969" y2="103.2969"/><polygon fill="#181818" points="343.3945,93.2969,347.3945,103.2969,351.3945,93.2969,347.3945,97.2969" style="stroke:#181818;stroke-width:1;"/><line style="stroke:#181818;stroke-width:1.2;" x1="347.3945" x2="347.3945" y1="314.4219" y2="334.4219"/><polygon fill="#181818" points="343.3945,324.4219,347.3945,334.4219,351.3945,324.4219,347.3945,328.4219" style="stroke:#181818;stroke-width:1;"/><line style="stroke:#181818;stroke-width:1.2;" x1="347.3945" x2="347.3945" y1="389.0469" y2="409.0469"/><polygon fill="#181818" points="343.3945,399.0469,347.3945,409.0469,351.3945,399.0469,347.3945,403.0469" style="stroke:#181818;stroke-width:1;"/><line style="stroke:#181818;stroke-width:1.2;" x1="347.3945" x2="347.3945" y1="482.2969" y2="502.2969"/><polygon fill="#181818" points="343.3945,492.2969,347.3945,502.2969,351.3945,492.2969,347.3945,496.2969" style="stroke:#181818;stroke-width:1;"/><line style="stroke:#181818;stroke-width:1.2;" x1="347.3945" x2="347.3945" y1="556.9219" y2="576.9219"/><polygon fill="#181818" points="343.3945,566.9219,347.3945,576.9219,351.3945,566.9219,347.3945,570.9219" style="stroke:#181818;stroke-width:1;"/><line style="stroke:#181818;stroke-width:1.2;" x1="347.3945" x2="347.3945" y1="650.1719" y2="670.1719"/><polygon fill="#181818" points="343.3945,660.1719,347.3945,670.1719,351.3945,660.1719,347.3945,664.1719" style="stroke:#181818;stroke-width:1;"/><line style="stroke:#181818;stroke-width:1.2;" x1="347.3945" x2="347.3945" y1="724.7969" y2="744.7969"/><polygon fill="#181818" points="343.3945,734.7969,347.3945,744.7969,351.3945,734.7969,347.3945,738.7969" style="stroke:#181818;stroke-width:1;"/><line style="stroke:#181818;stroke-width:1.2;" x1="347.3945" x2="347.3945" y1="818.0469" y2="838.0469"/><polygon fill="#181818" points="343.3945,828.0469,347.3945,838.0469,351.3945,828.0469,347.3945,832.0469" style="stroke:#181818;stroke-width:1;"/><line style="stroke:#181818;stroke-width:1.2;" x1="347.3945" x2="347.3945" y1="892.6719" y2="912.6719"/><polygon fill="#181818" points="343.3945,902.6719,347.3945,912.6719,351.3945,902.6719,347.3945,906.6719" style="stroke:#181818;stroke-width:1;"/><line style="stroke:#181818;stroke-width:1.2;" x1="347.3945" x2="347.3945" y1="176.5469" y2="241.1719"/><polygon fill="#181818" points="343.3945,231.1719,347.3945,241.1719,351.3945,231.1719,347.3945,235.1719" style="stroke:#181818;stroke-width:1;"/><line style="stroke:#181818;stroke-width:1.2;" x1="347.3945" x2="347.3945" y1="1135.7969" y2="1155.7969"/><polygon fill="#181818" points="343.3945,1145.7969,347.3945,1155.7969,351.3945,1145.7969,347.3945,1149.7969" style="stroke:#181818;stroke-width:1;"/><line style="stroke:#181818;stroke-width:1.2;" x1="347.3945" x2="347.3945" y1="1210.4219" y2="1230.4219"/><polygon fill="#181818" points="343.3945,1220.4219,347.3945,1230.4219,351.3945,1220.4219,347.3945,1224.4219" style="stroke:#181818;stroke-width:1;"/><line style="stroke:#181818;stroke-width:1.2;" x1="347.3945" x2="347.3945" y1="1303.6719" y2="1323.6719"/><polygon fill="#181818" points="343.3945,1313.6719,347.3945,1323.6719,351.3945,1313.6719,347.3945,1317.6719" style="stroke:#181818;stroke-width:1;"/><line style="stroke:#181818;stroke-width:1.2;" x1="347.3945" x2="347.3945" y1="1378.2969" y2="1398.2969"/><polygon fill="#181818" points="343.3945,1388.2969,347.3945,1398.2969,351.3945,1388.2969,347.3945,1392.2969" style="stroke:#181818;stroke-width:1;"/><line style="stroke:#181818;stroke-width:1.2;" x1="347.3945" x2="347.3945" y1="1471.5469" y2="1491.5469"/><polygon fill="#181818" points="343.3945,1481.5469,347.3945,1491.5469,351.3945,1481.5469,347.3945,1485.5469" style="stroke:#181818;stroke-width:1;"/><line style="stroke:#181818;stroke-width:1.2;" x1="347.3945" x2="347.3945" y1="1546.1719" y2="1566.1719"/><polygon fill="#181818" points="343.3945,1556.1719,347.3945,1566.1719,351.3945,1556.1719,347.3945,1560.1719" style="stroke:#181818;stroke-width:1;"/><line style="stroke:#181818;stroke-width:1.2;" x1="347.3945" x2="347.3945" y1="985.9219" y2="1062.5469"/><polygon fill="#181818" points="343.3945,1052.5469,347.3945,1062.5469,351.3945,1052.5469,347.3945,1056.5469" style="stroke:#181818;stroke-width:1;"/><line style="stroke:#181818;stroke-width:1.2;" x1="347.3945" x2="347.3945" y1="1639.4219" y2="1671.4219"/><polygon fill="#181818" points="343.3945,1661.4219,347.3945,1671.4219,351.3945,1661.4219,347.3945,1665.4219" style="stroke:#181818;stroke-width:1;"/><line style="stroke:#181818;stroke-width:1.2;" x1="347.3945" x2="347.3945" y1="1744.6719" y2="1764.6719"/><polygon fill="#181818" points="343.3945,1754.6719,347.3945,1764.6719,351.3945,1754.6719,347.3945,1758.6719" style="stroke:#181818;stroke-width:1;"/><line style="stroke:#181818;stroke-width:1.2;" x1="347.3945" x2="347.3945" y1="1837.9219" y2="1857.9219"/><polygon fill="#181818" points="343.3945,1847.9219,347.3945,1857.9219,351.3945,1847.9219,347.3945,1851.9219" style="stroke:#181818;stroke-width:1;"/><!--SRC=[XPD1Rjim44NtEiKi7HTk8SaL0XKj4CT9Qo1nWxXEDzaGqbWYH0q5ahAJ5Dts0DduGBv9Jj9HZJWg44KR4iJWl_dyGzf2KYMCAC5WuWHb2XVkNY4ONLFgsKFPvYBL6qaPh8IosAgak1ArSkUQt48-8FXHgoYCqPiVkKmAGcl1Vn-qYbSYJHlYiUSvwRZfS7WZI2ebO3cQeuCJa-JIiR7Q80oM5bEG11U2KgjaYh30h4HomabDHyEXvradZFEyU4PLxM1MYWm1l444fxaWGcNXwSyZN7-Tm3kOJszcl2sKhf3tCuNhFUYMcdl4y0rsM_ZPBD4dpsFBR9BhS4Q9Jj70BsvqgcaD4wMJ0locKtCExqBcNUF5ahK1uxxNZkt4d0oif79eBFD6eo_0WAdUq5vwAUwkj5R1_vemwD04tPfetA49kpL-SDmX6dUBWe-76y5WeXtFa30fZfZmkvtO55yIMrRxwouhAyfA8ICvBSuj4GusqkMD5UxnBydTjXrbZric1s-Jet4V-BNec1k-pGs3FkvhOsJkk2U9g3U8zfFYpEDpIKA1lzlw3McjLTrCu5dm_0_WC_WiY1SoAxLCuIHnSl_wRsd217CFby8MC7ZvQnzWhcbqE3SpjavNVm40]--></g></svg>